HIERARCHY
ROOT Hips
{
    OFFSET 0.000000 0.000000 0.000000
    CHANNELS 6 Xposition Yposition Zposition Zrotation Xrotation Yrotation
    JOINT Spine
    {
        OFFSET -0.000000 14.517291 0.000000
        CHANNELS 3 Zrotation Xrotation Yrotation
        JOINT Spine1
        {
            OFFSET -0.000000 37.558300 0.000000
            CHANNELS 3 Zrotation Xrotation Yrotation
            JOINT Neck
            {
                OFFSET -0.000000 37.404057 3.400369
                CHANNELS 3 Zrotation Xrotation Yrotation
                JOINT Head
                {
                    OFFSET -0.000000 24.785618 -3.540803
                    CHANNELS 3 Zrotation Xrotation Yrotation
                    End Site
                    {
                        OFFSET -0.000000 35.408028 0.000000
                    }
                }
            }
            JOINT LeftShoulder
            {
                OFFSET 6.992933 33.973492 -0.192664
                CHANNELS 3 Zrotation Xrotation Yrotation
                JOINT LeftArm
                {
                    OFFSET 21.527611 0.000000 0.000000
                    CHANNELS 3 Zrotation Xrotation Yrotation
                    JOINT LeftForeArm
                    {
                        OFFSET 56.353916 0.000000 0.000000
                        CHANNELS 3 Zrotation Xrotation Yrotation
                        JOINT LeftHand
                        {
                            OFFSET 47.774071 0.000000 0.000000
                            CHANNELS 3 Zrotation Xrotation Yrotation
                            End Site
                            {
                                OFFSET 26.556021 0.000000 0.000000
                            }
                        }
                    }
                }
            }
            JOINT RightShoulder
            {
                OFFSET -7.065357 33.973492 -0.192664
                CHANNELS 3 Zrotation Xrotation Yrotation
                JOINT RightArm
                {
                    OFFSET -21.527611 0.000000 0.000000
                    CHANNELS 3 Zrotation Xrotation Yrotation
                    JOINT RightForeArm
                    {
                        OFFSET -56.353916 0.000000 0.000000
                        CHANNELS 3 Zrotation Xrotation Yrotation
                        JOINT RightHand
                        {
                            OFFSET -47.774071 0.000000 0.000000
                            CHANNELS 3 Zrotation Xrotation Yrotation
                            End Site
                            {
                                OFFSET -26.556021 0.000000 0.000000
                            }
                        }
                    }
                }
            }
        }
    }
    JOINT LeftUpLeg
    {
        OFFSET 17.704014 0.000000 0.000000
        CHANNELS 3 Zrotation Xrotation Yrotation
        JOINT LeftLeg
        {
            OFFSET -0.000000 -81.181816 0.000000
            CHANNELS 3 Zrotation Xrotation Yrotation
            JOINT LeftFoot
            {
                OFFSET -0.000000 -62.821102 0.000000
                CHANNELS 3 Zrotation Xrotation Yrotation
                JOINT LeftToeBase
                {
                    OFFSET -0.000000 -11.507608 26.556021
                    CHANNELS 3 Zrotation Xrotation Yrotation
                    End Site
                    {
                        OFFSET -0.000000 0.000000 7.081605
                    }
                }
            }
        }
    }
    JOINT RightUpLeg
    {
        OFFSET -17.704014 0.000000 0.000000
        CHANNELS 3 Zrotation Xrotation Yrotation
        JOINT RightLeg
        {
            OFFSET -0.000000 -81.181816 0.000000
            CHANNELS 3 Zrotation Xrotation Yrotation
            JOINT RightFoot
            {
                OFFSET -0.000000 -62.821102 0.000000
                CHANNELS 3 Zrotation Xrotation Yrotation
                JOINT RightToeBase
                {
                    OFFSET -0.000000 -11.507608 26.556021
                    CHANNELS 3 Zrotation Xrotation Yrotation
                    End Site
                    {
                        OFFSET -0.000000 0.000000 7.081605
                    }
                }
            }
        }
    }
}
MOTION
Frames:    7
Frame Time:    0.008333
-4.972484    152.593307    -13.295605    -0.037723    1.616367    18.505728    -0.437791    0.001251    4.049479    -4.836851    0.242686    1.359766    4.049164    3.762780    -8.687420    9.454954    -2.213957    -7.990507    3.074142    3.251611    -6.562379    -44.119877    17.432455    -44.189716    -12.334722    -11.380916    -130.651321    3.661373    -36.378323    -5.546906    -5.756023    16.287022    -16.885118    48.116615    13.316681    7.055835    9.653093    2.213160    124.993401    -7.090708    -16.688009    6.330485    1.378906    -33.909149    -27.900890    -11.176682    21.767509    -19.304707    -9.781732    2.806122    30.899509    0.000000    0.000000    0.000000    0.765784    12.023192    -9.346184    3.463351    21.317320    -0.716630    -2.692763    -29.844658    -6.548142    0.000000    0.000000    0.000000    
-4.960473    152.582581    -13.291025    -0.028035    1.616069    18.543022    -0.426472    0.002083    4.078525    -4.853964    0.252240    1.369870    4.020886    3.760708    -8.715221    9.496996    -2.223867    -8.008777    3.056915    3.268849    -6.559541    -44.113544    17.430241    -44.189354    -12.274683    -11.481987    -130.580368    3.390509    -36.305145    -5.721859    -5.785728    16.249044    -16.829395    48.077534    13.297765    7.023275    9.719296    2.194017    124.966980    -7.119491    -16.822674    6.314478    1.341418    -33.915695    -27.902863    -11.170173    21.784075    -19.316326    -9.770260    2.813948    30.876469    0.000000    0.000000    0.000000    0.759415    12.023621    -9.365036    3.464418    21.341103    -0.727096    -2.685355    -29.863182    -6.544036    0.000000    0.000000    0.000000    
-4.949584    152.570587    -13.287423    -0.021107    1.609933    18.579748    -0.415096    0.013123    4.111665    -4.861901    0.255153    1.381056    3.995768    3.762507    -8.742575    9.520755    -2.238050    -8.029386    3.032567    3.276904    -6.552648    -44.128239    17.408190    -44.186474    -12.280061    -11.480513    -130.565781    3.423103    -36.307480    -5.713517    -5.817399    16.241964    -16.806915    48.034801    13.325852    7.036682    9.745868    2.104133    124.921051    -7.097748    -16.940067    6.317351    1.309747    -33.921570    -27.928030    -11.174328    21.806244    -19.337818    -9.759755    2.811734    30.874994    0.000000    0.000000    0.000000    0.760672    12.027016    -9.391051    3.461273    21.366459    -0.743900    -2.668209    -29.884581    -6.535047    0.000000    0.000000    0.000000    
-4.939271    152.561279    -13.282373    -0.015355    1.608984    18.613565    -0.405220    0.015661    4.145755    -4.868956    0.264892    1.392867    3.983328    3.751957    -8.768339    9.526914    -2.237947    -8.054234    2.999818    3.287743    -6.544391    -44.150959    17.363794    -44.176392    -12.296013    -11.438688    -130.552078    3.465970    -36.297146    -5.698436    -5.848359    16.233532    -16.774120    47.989391    13.283520    7.047731    9.793441    2.089522    124.854912    -7.134912    -17.020494    6.321855    1.279688    -33.930080    -27.932154    -11.171730    21.830959    -19.363148    -9.753637    2.801457    30.862413    0.000000    0.000000    0.000000    0.759626    12.028490    -9.403496    3.457273    21.386484    -0.749019    -2.653766    -29.902096    -6.526175    0.000000    0.000000    0.000000    
-4.935335    152.554398    -13.278630    -0.013881    1.608436    18.647144    -0.401538    0.017109    4.177805    -4.867620    0.275172    1.403991    3.959503    3.749689    -8.789248    9.551564    -2.240826    -8.069196    2.972997    3.299493    -6.523310    -44.174160    17.353666    -44.171440    -12.296117    -11.444410    -130.541199    3.487212    -36.297131    -5.691659    -5.874244    16.231606    -16.750896    47.965092    13.314030    7.063186    9.799519    1.945360    124.804802    -7.049648    -17.143106    6.277952    1.256293    -33.940704    -27.951721    -11.176891    21.849731    -19.376667    -9.744130    2.803694    30.859207    0.000000    0.000000    0.000000    0.767582    12.027079    -9.431934    3.449534    21.399828    -0.795814    -2.635494    -29.910032    -6.485850    0.000000    0.000000    0.000000    
-4.929783    152.545334    -13.275264    -0.012957    1.609996    18.678715    -0.402610    0.010777    4.216921    -4.854802    0.292006    1.417707    3.947115    3.744648    -8.810465    9.550386    -2.237398    -8.090553    2.941117    3.311860    -6.518437    -44.204353    17.338152    -44.162098    -12.300320    -11.452472    -130.536728    3.473936    -36.308739    -5.688518    -5.901511    16.234764    -16.727400    47.928215    13.317176    7.070798    9.797102    1.823500    124.756905    -6.967755    -17.229641    6.240531    1.229005    -33.954678    -27.970949    -11.175790    21.872955    -19.392700    -9.737859    2.796417    30.859713    0.000000    0.000000    0.000000    0.770564    12.022364    -9.472698    3.434613    21.421001    -0.757076    -2.596112    -29.924099    -6.496778    0.000000    0.000000    0.000000    
-4.925317    152.537750    -13.269281    -0.009364    1.612933    18.707201    -0.405714    0.004594    4.248546    -4.846911    0.306219    1.428847    3.934046    3.745498    -8.828048    9.546768    -2.233583    -8.108262    2.911494    3.321273    -6.499366    -44.244473    17.321417    -44.141399    -12.309510    -11.437726    -130.539276    3.488337    -36.315029    -5.653821    -5.932779    16.226683    -16.689693    47.889732    13.355347    7.065483    9.778267    1.689289    124.715477    -6.848571    -17.300890    6.262910    1.202780    -33.966000    -27.981813    -11.171042    21.894089    -19.410568    -9.725092    2.795863    30.845879    0.000000    0.000000    0.000000    0.771283    12.017066    -9.470823    3.439001    21.438910    -0.794766    -2.578463    -29.943838    -6.471241    0.000000    0.000000    0.000000    
